<?xml version="1.0" encoding="iso-8859-1"?>
<!-- Generator: Adobe Illustrator 19.0.0, SVG Export Plug-In . SVG Version: 6.00 Build 0)  -->
<svg version="1.1" id="Capa_1" xmlns="http://www.w3.org/2000/svg" xmlns:xlink="http://www.w3.org/1999/xlink" viewBox="0 0 24 24" style="enable-background:new 0 0 512 512;" xml:space="preserve">
    <path d="M22 23h-6.001a1 1 0 0 1-1-1v-5.455a2.997 2.997 0 1 0-5.993 0V22a1 1 0 0 1-1 1H2a1 1 0 0 1-1-1V11.543a1.002 1.002 0 0 1 .31-.724l10-9.543a1.001 1.001 0 0 1 1.38 0l10 9.543a1.002 1.002 0 0 1 .31.724V22a1 1 0 0 1-1 1Z"></path>
</svg>

